<?xml version="1.0" encoding="UTF-8"?>
<svg version="1.1" xmlns="http://www.w3.org/2000/svg" width="1024" height="768" viewBox="0 0 1024 768">
<path d="M0 0 C1.04447296 0.00021149 2.08894592 0.00042297 3.16506958 0.00064087 C18.47685196 0.03163727 33.23055868 0.47262431 48.125 4.375 C48.84381348 4.55691895 49.56262695 4.73883789 50.30322266 4.92626953 C55.00498626 6.154678 59.57195821 7.67716436 64.125 9.375 C64.9082666 9.66391113 65.6915332 9.95282227 66.49853516 10.25048828 C84.80214202 17.08199137 100.48308097 25.6802597 116.125 37.375 C117.57132813 38.45007813 117.57132813 38.45007813 119.046875 39.546875 C146.4502736 60.97135027 168.37420957 91.0250686 178.5 124.4375 C178.71414551 125.14205322 178.92829102 125.84660645 179.14892578 126.57250977 C179.87910177 129.15952502 180.50280012 131.75951902 181.125 134.375 C181.28192511 135.0234554 181.43885021 135.6719108 181.60053062 136.34001637 C184.82683374 149.95990694 185.72095757 162.91653712 185.65625 176.87890625 C185.65895589 178.9795703 185.66284732 181.08023311 185.66784668 183.18089294 C185.67368896 187.54837157 185.66535036 191.91551934 185.64648438 196.28295898 C185.62368409 201.82525984 185.63685915 207.3667859 185.66077423 212.90905857 C185.67536407 217.23591239 185.67056669 221.56258841 185.66026306 225.88944817 C185.65763276 227.93077631 185.66073193 229.97212168 185.67018127 232.01342964 C185.71822011 245.2984753 184.44788575 257.50034548 181.125 270.375 C180.86702637 271.38707016 180.60905273 272.39914032 180.34326172 273.44187927 C179.76703534 275.61053272 179.12928837 277.74064519 178.4375 279.875 C178.18895264 280.64505371 177.94040527 281.41510742 177.68432617 282.20849609 C162.74216702 326.67888589 128.04704866 361.49883244 86.65991211 382.20605469 C56.42931788 396.91208033 26.21777621 401.16186801 -7.03841281 400.99930525 C-11.39684017 400.98362406 -15.75520094 400.99734386 -20.1136322 401.00704956 C-28.61059578 401.02144692 -37.10731733 401.00947698 -45.60425779 400.98793632 C-55.52111222 400.96373237 -65.43791349 400.96565223 -75.3547909 400.96824223 C-93.05282056 400.97191765 -110.75073723 400.95122851 -128.44873047 400.91699219 C-145.58775685 400.88384998 -162.72666488 400.86974579 -179.86572266 400.87597656 C-198.58795358 400.88274952 -217.31013522 400.88025923 -236.03235888 400.86061716 C-237.51867565 400.85905793 -237.51867565 400.85905793 -239.03501903 400.8574672 C-241.02454124 400.8553765 -243.01406342 400.85326553 -245.00358559 400.85113403 C-251.90377448 400.84426029 -258.80394811 400.84356537 -265.70413971 400.84501648 C-274.1122287 400.84646004 -282.52022169 400.83669364 -290.92827889 400.81307012 C-295.2116469 400.80126136 -299.49488155 400.79405085 -303.778265 400.79990768 C-307.70713428 400.80512097 -311.63572305 400.79624707 -315.56454453 400.77663308 C-316.97718915 400.77193651 -318.3898615 400.77213724 -319.80250159 400.77804345 C-348.57424229 400.88661486 -372.46975315 389.14452701 -393 369.625 C-410.5522945 351.62693294 -418.84752301 328.74904328 -419.5625 303.9375 C-419.60012451 302.67921387 -419.63774902 301.42092773 -419.67651367 300.12451172 C-420.62169528 261.99821902 -420.62169528 261.99821902 -414.875 246.375 C-414.52566406 245.36179687 -414.17632812 244.34859375 -413.81640625 243.3046875 C-404.94939987 219.80251834 -386.22868928 201.80996179 -363.78222656 191.22265625 C-358.29717058 188.78485359 -352.6566546 186.98169138 -346.875 185.375 C-345.75351562 185.0553125 -344.63203125 184.735625 -343.4765625 184.40625 C-331.43816103 181.48457054 -319.18042968 182.0901859 -306.875 182.375 C-306.61074219 181.50488281 -306.34648437 180.63476562 -306.07421875 179.73828125 C-296.91281352 154.04456821 -271.68172722 132.76062545 -247.75 121.125 C-231.21082367 113.41197252 -210.40820634 107.24396856 -192.03515625 108.796875 C-185.83841786 109.21842183 -179.7753925 109.59535676 -173.875 107.375 C-168.71767555 102.60577917 -166.59130523 95.56507064 -164.08349609 89.16796875 C-162.21840479 84.85753551 -159.69570821 81.15826252 -156.9375 77.375 C-156.43839111 76.6845459 -155.93928223 75.9940918 -155.42504883 75.28271484 C-150.81783649 69.06085659 -145.72551329 63.3605746 -140.30566406 57.84082031 C-138.94085152 56.44246972 -137.60625628 55.01481529 -136.2734375 53.5859375 C-128.57060136 45.51075883 -119.91730733 38.87771994 -110.875 32.375 C-110.00367432 31.74464844 -110.00367432 31.74464844 -109.11474609 31.1015625 C-87.59552183 15.7738569 -62.59282794 7.29062002 -36.875 2.375 C-35.39193359 2.09027832 -35.39193359 2.09027832 -33.87890625 1.79980469 C-22.63472183 -0.08433773 -11.37254674 -0.02115375 0 0 Z " fill="#004EF6" transform="translate(627.875,256.625)"/>
<path d="M0 0 C1.09368896 0.00080566 2.18737793 0.00161133 3.31420898 0.00244141 C14.71408735 0.08808533 25.87993341 0.98060558 36.875 4.1875 C36.875 4.8475 36.875 5.5075 36.875 6.1875 C37.44863281 6.2390625 38.02226562 6.290625 38.61328125 6.34375 C45.40697488 7.25095036 51.35468313 9.40703628 57.625 12.0625 C58.42848877 12.40216797 59.23197754 12.74183594 60.05981445 13.09179688 C64.86648971 15.17841559 69.35011694 17.55033278 73.875 20.1875 C75.009375 20.64125 76.14375 21.095 77.3125 21.5625 C82.71540644 24.02698364 87.09490238 27.39288282 91.26953125 31.6015625 C94.70292954 35.00922317 98.45795926 37.91582297 102.25390625 40.90625 C105.37887137 43.6260408 108.04214376 46.41074002 109.8125 50.1875 C110.87073125 52.41496338 110.87073125 52.41496338 113.25 54.5625 C118.0718048 59.3843048 120.96905751 65.07765819 123.8125 71.1875 C124.15877441 71.92500488 124.50504883 72.66250977 124.86181641 73.42236328 C127.57923772 79.31411746 129.82324788 85.26928206 131.8671875 91.4296875 C132.8098095 94.34474167 132.8098095 94.34474167 134.875 97.1875 C135.69038386 101.13548726 136.03262122 105.15773684 136.4609375 109.16430664 C136.59148529 110.37092736 136.72203308 111.57754808 136.85653687 112.82073307 C138.0417262 124.53747653 138.37669777 136.20346101 138.47088623 147.97295952 C138.50098109 151.67942399 138.54860412 155.38534214 138.60009766 159.09156799 C138.71531652 167.60234607 138.80711663 176.11331468 138.89584351 184.62440491 C138.98445747 193.11627419 139.08395303 201.6078746 139.20281982 210.0993824 C139.2489818 213.72854476 139.27841045 217.35758743 139.30712891 220.98692322 C139.33671831 223.223634 139.36711199 225.46033434 139.3984375 227.69702148 C139.40164001 228.68679489 139.40484253 229.6765683 139.40814209 230.69633484 C139.5752034 240.19817487 141.44777943 249.31024393 145.9375 257.75 C146.44410156 258.72066406 146.95070313 259.69132812 147.47265625 260.69140625 C148.9046488 263.3143714 148.9046488 263.3143714 150.875 266.1875 C150.875 267.1775 150.875 268.1675 150.875 269.1875 C151.473125 269.435 152.07125 269.6825 152.6875 269.9375 C155.19126919 271.36822525 156.35572388 272.7566582 157.875 275.1875 C157.875 275.8475 157.875 276.5075 157.875 277.1875 C158.7825 277.435 159.69 277.6825 160.625 277.9375 C163.875 279.1875 163.875 279.1875 165.53125 281.0625 C168.83666413 284.05940881 172.43023217 285.07402654 176.625 286.4375 C177.81416016 286.8396875 177.81416016 286.8396875 179.02734375 287.25 C180.97303689 287.90637841 182.92356818 288.54838477 184.875 289.1875 C184.875 289.8475 184.875 290.5075 184.875 291.1875 C191.145 291.1875 197.415 291.1875 203.875 291.1875 C203.875 291.5175 203.875 291.8475 203.875 292.1875 C159.39799158 292.25621062 114.9209888 292.30905138 70.44393774 292.34069599 C65.18951309 292.34444798 59.93508855 292.34833096 54.68066406 292.35229492 C53.1116139 292.35347532 53.1116139 292.35347532 51.51086576 292.35467956 C34.58770788 292.36772303 17.66458065 292.39137103 0.74144094 292.41895839 C-16.6314354 292.44704207 -34.00429571 292.46368252 -51.37719381 292.46976548 C-62.0917234 292.47387578 -72.80616631 292.48684412 -83.52066921 292.5112494 C-90.87431485 292.52714317 -98.22791587 292.53189213 -105.58157744 292.52800413 C-109.82022896 292.52608825 -114.0587293 292.52896424 -118.29735374 292.54511642 C-122.18652145 292.55982785 -126.07543782 292.56038037 -129.96461765 292.55019668 C-131.36324751 292.54894001 -132.76189374 292.55264984 -134.1604919 292.56214955 C-162.86569051 292.74560787 -186.7831586 280.89674306 -207.25 261.4375 C-224.8022945 243.43943294 -233.09752301 220.56154328 -233.8125 195.75 C-233.85012451 194.49171387 -233.88774902 193.23342773 -233.92651367 191.93701172 C-234.87169528 153.81071902 -234.87169528 153.81071902 -229.125 138.1875 C-228.77566406 137.17429687 -228.42632812 136.16109375 -228.06640625 135.1171875 C-219.19939987 111.61501834 -200.47868928 93.62246179 -178.03222656 83.03515625 C-172.54717058 80.59735359 -166.9066546 78.79419138 -161.125 77.1875 C-160.00351562 76.8678125 -158.88203125 76.548125 -157.7265625 76.21875 C-145.68816103 73.29707054 -133.43042968 73.9026859 -121.125 74.1875 C-120.86074219 73.31738281 -120.59648437 72.44726562 -120.32421875 71.55078125 C-111.16281352 45.85706821 -85.93172722 24.57312545 -62 12.9375 C-42.59695372 3.88890978 -21.28362009 -0.01640356 0 0 Z " fill="#0075FC" transform="translate(442.125,364.8125)"/>
<path d="M0 0 C0.495 1.485 0.495 1.485 1 3 C2.15242188 2.95746094 3.30484375 2.91492188 4.4921875 2.87109375 C8.97578943 2.8779916 12.85780073 3.75039727 17.125 5.0625 C18.23621216 5.40293335 18.23621216 5.40293335 19.36987305 5.75024414 C35.89628362 11.02727231 53.13557839 21.20799634 65 34 C65.64582031 34.64839844 66.29164063 35.29679687 66.95703125 35.96484375 C78.54727248 48.28710022 86.48100175 65.30784291 89 82 C89.16810684 82.72743408 89.33621368 83.45486816 89.50941467 84.2043457 C90.08240256 87.46958003 90.14753912 90.56303198 90.17358398 93.87890625 C90.180271 94.55125809 90.18695801 95.22360992 90.19384766 95.91633606 C90.20784832 97.37094348 90.21975802 98.82557223 90.22979546 100.2802124 C90.24632299 102.59460079 90.26957003 104.90883439 90.29469299 107.22314453 C90.36510729 113.80184062 90.42518474 120.38060283 90.47680664 126.95947266 C90.50891885 130.99187691 90.5502784 135.02410587 90.59700203 139.05636597 C90.61284045 140.58068635 90.62524377 142.10504701 90.63390923 143.62942505 C90.76560162 166.48404629 94.36167767 185.63450849 110.58984375 202.78125 C117.72790961 209.35243542 125.81141522 213.13856451 135 216 C131.51308373 218.13623466 128.74113439 218.25332862 124.69082642 218.26069641 C122.74401474 218.27132362 122.74401474 218.27132362 120.75787354 218.28216553 C119.32116664 218.27987163 117.88446008 218.27736193 116.44775391 218.2746582 C114.93295032 218.27900619 113.41814894 218.28418963 111.90335083 218.29014587 C107.78705174 218.30354789 103.67084442 218.30411248 99.55452776 218.30158257 C96.11097425 218.30051219 92.66743925 218.30539872 89.22388971 218.310188 C81.08821057 218.32129051 72.95257758 218.3217185 64.81689453 218.31567383 C56.45097135 218.30965289 48.08521715 218.32189531 39.7193228 218.3432439 C32.52077057 218.36093175 25.32227173 218.3668494 18.12369859 218.36360615 C13.83192697 218.36180221 9.54027549 218.36433857 5.24852371 218.37832069 C1.20191446 218.39100922 -2.84443497 218.38885221 -6.8910408 218.37590981 C-8.36549217 218.37356702 -9.83996244 218.37619477 -11.31439209 218.38453293 C-40.37150251 218.53682308 -64.35777825 206.99483545 -85.125 187.25 C-102.6772945 169.25193294 -110.97252301 146.37404328 -111.6875 121.5625 C-111.72512451 120.30421387 -111.76274902 119.04592773 -111.80151367 117.74951172 C-112.74669528 79.62321902 -112.74669528 79.62321902 -107 64 C-106.65066406 62.98679687 -106.30132812 61.97359375 -105.94140625 60.9296875 C-97.07439987 37.42751834 -78.35368928 19.43496179 -55.90722656 8.84765625 C-50.42231218 6.40991653 -44.7819836 4.60509324 -39 3 C-37.86691406 2.6803125 -36.73382813 2.360625 -35.56640625 2.03125 C-23.83857459 -0.79284324 -11.98642483 -0.29039046 0 0 Z " fill="#00CEF7" transform="translate(320,439)"/>
<path d="M0 0 C-2.55332542 3.04093965 -5.34228382 4.13258399 -9 5.5625 C-12.30691578 6.86338231 -15.03470862 8.02313908 -18 10 C-19.32 10 -20.64 10 -22 10 C-22 10.66 -22 11.32 -22 12 C-23.65 12.33 -25.3 12.66 -27 13 C-27 12.34 -27 11.68 -27 11 C-23.26040642 8.95945162 -19.50684338 6.94608711 -15.75 4.9375 C-14.68652344 4.35677734 -13.62304688 3.77605469 -12.52734375 3.17773438 C-11.50253906 2.63310547 -10.47773437 2.08847656 -9.421875 1.52734375 C-8.47924805 1.01937256 -7.53662109 0.51140137 -6.56542969 -0.01196289 C-3.79535914 -1.07881439 -2.71356537 -1.07481756 0 0 Z " fill="#044EF1" transform="translate(551,273)"/>
<path d="M0 0 C-1.32 0.33 -2.64 0.66 -4 1 C-4 1.66 -4 2.32 -4 3 C-5.07121094 3.27714844 -6.14242187 3.55429687 -7.24609375 3.83984375 C-8.64327627 4.20554924 -10.04040915 4.57144446 -11.4375 4.9375 C-12.14455078 5.11990234 -12.85160156 5.30230469 -13.58007812 5.49023438 C-17.07574861 6.18149374 -17.07574861 6.18149374 -20 8 C-21.51469448 8.23192865 -23.03754562 8.41215238 -24.5625 8.5625 C-25.38878906 8.64628906 -26.21507812 8.73007812 -27.06640625 8.81640625 C-27.70449219 8.87699219 -28.34257813 8.93757813 -29 9 C-29 8.34 -29 7.68 -29 7 C-26.6464689 6.20640264 -24.29221117 5.41508217 -21.9375 4.625 C-21.28072266 4.40328125 -20.62394531 4.1815625 -19.94726562 3.953125 C-13.22024217 1.69973783 -7.19352063 -0.29361309 0 0 Z " fill="#1356EE" transform="translate(583,262)"/>
<path d="M0 0 C1.16337891 0.00966797 2.32675781 0.01933594 3.52539062 0.02929688 C4.74033203 0.05443359 5.95527344 0.07957031 7.20703125 0.10546875 C8.43357422 0.11900391 9.66011719 0.13253906 10.92382812 0.14648438 C13.95616789 0.18188134 16.98763121 0.23126115 20.01953125 0.29296875 C20.01953125 0.95296875 20.01953125 1.61296875 20.01953125 2.29296875 C10.31774896 3.05389285 0.75477413 3.42797212 -8.98046875 3.29296875 C-6.35613804 -0.15967879 -4.19378209 -0.06137242 0 0 Z " fill="#0247EC" transform="translate(613.98046875,256.70703125)"/>
<path d="M0 0 C-1.61330314 4.00939243 -4.42459698 6.75673781 -7.4375 9.75 C-7.92798828 10.25660156 -8.41847656 10.76320313 -8.92382812 11.28515625 C-10.22284961 12.5859308 -11.60745123 13.79988368 -13 15 C-13.99 15 -14.98 15 -16 15 C-14.38669686 10.99060757 -11.57540302 8.24326219 -8.5625 5.25 C-8.07201172 4.74339844 -7.58152344 4.23679687 -7.07617188 3.71484375 C-3.36633465 0 -3.36633465 0 0 0 Z " fill="#0047EB" transform="translate(497,308)"/>
<path d="M0 0 C3.03248184 1.35852859 5.14633598 2.88991927 7.49609375 5.23046875 C8.13740234 5.86919922 8.77871094 6.50792969 9.43945312 7.16601562 C10.42848633 8.16665039 10.42848633 8.16665039 11.4375 9.1875 C12.09298828 9.83525391 12.74847656 10.48300781 13.42382812 11.15039062 C17.43786674 15.18053371 20.82329231 19.28084464 24 24 C20.55729549 22.46990911 17.81074178 20.5068778 15 18 C14.67 17.01 14.34 16.02 14 15 C12.37258289 13.27086932 10.71518789 11.63922385 9 10 C7.39146586 8.42110385 5.78757108 6.8374721 4.1875 5.25 C3.39730469 4.47140625 2.60710938 3.6928125 1.79296875 2.890625 C0 1 0 1 0 0 Z " fill="#084CEC" transform="translate(753,303)"/>
<path d="M0 0 C3.17295134 1.33501459 4.61577278 2.46265903 6.25390625 5.484375 C6.82334961 6.51691406 6.82334961 6.51691406 7.40429688 7.5703125 C7.78650391 8.28960937 8.16871094 9.00890625 8.5625 9.75 C8.94857422 10.45382812 9.33464844 11.15765625 9.73242188 11.8828125 C10.48726817 13.26648304 11.23314258 14.65509206 11.96923828 16.04882812 C12.90489139 17.81996494 13.87072773 19.57507437 14.83984375 21.328125 C16 24 16 24 15 27 C13.82823482 24.87767021 12.66245215 22.75242209 11.5 20.625 C11.16613281 20.02171875 10.83226562 19.4184375 10.48828125 18.796875 C8 14.2265625 8 14.2265625 8 12 C7.01 12 6.02 12 5 12 C4.731875 11.13375 4.46375 10.2675 4.1875 9.375 C3.02888013 6.08208036 1.61790161 3.08872125 0 0 Z " fill="#1354E9" transform="translate(782,336)"/>
<path d="M0 0 C7.92 0.33 15.84 0.66 24 1 C22 3 22 3 19.75341797 3.22705078 C18.84221191 3.21657715 17.93100586 3.20610352 16.9921875 3.1953125 C16.00605469 3.18886719 15.01992188 3.18242187 14.00390625 3.17578125 C12.45509766 3.15064453 12.45509766 3.15064453 10.875 3.125 C9.83472656 3.11597656 8.79445313 3.10695313 7.72265625 3.09765625 C5.14820908 3.07403747 2.57421788 3.04110149 0 3 C0 2.01 0 1.02 0 0 Z " fill="#1075F2" transform="translate(430,365)"/>
<path d="M0 0 C1.175625 0.14985352 1.175625 0.14985352 2.375 0.30273438 C4.29266838 0.54828947 6.20898925 0.80432929 8.125 1.0625 C8.125 1.7225 8.125 2.3825 8.125 3.0625 C6.16674127 3.08944851 4.20837774 3.10887218 2.25 3.125 C1.15945313 3.13660156 0.06890625 3.14820313 -1.0546875 3.16015625 C-3.875 3.0625 -3.875 3.0625 -5.875 2.0625 C-7.41168865 1.83782169 -8.95468054 1.65453195 -10.5 1.5 C-11.31726563 1.41621094 -12.13453125 1.33242188 -12.9765625 1.24609375 C-13.60304688 1.18550781 -14.22953125 1.12492187 -14.875 1.0625 C-14.875 0.7325 -14.875 0.4025 -14.875 0.0625 C-9.66266344 -1.12817752 -5.21754025 -0.71188473 0 0 Z " fill="#2764F0" transform="translate(657.875,257.9375)"/>
<path d="M0 0 C5.96564796 0.50771472 10.63809899 2.38592128 16 5 C12.1280483 6.29065057 9.55767399 5.22324098 5.8125 4.0625 C4.83120117 3.76956055 4.83120117 3.76956055 3.83007812 3.47070312 C2.21772593 2.98817437 0.60853711 2.49509795 -1 2 C-0.67 1.34 -0.34 0.68 0 0 Z " fill="#0750F2" transform="translate(685,265)"/>
<path d="M0 0 C0.99 0.33 1.98 0.66 3 1 C-0.34028087 4.67768297 -4.07366412 7.14403432 -8.25 9.75 C-8.8996875 10.16121094 -9.549375 10.57242188 -10.21875 10.99609375 C-11.8095659 12.00205086 -13.40438433 13.00167362 -15 14 C-15 13.01 -15 12.02 -15 11 C-12.89386125 9.52866927 -10.85578532 8.25187531 -8.625 7 C-3.69695381 4.24196256 -3.69695381 4.24196256 0 0 Z " fill="#1D5EEC" transform="translate(741,619)"/>
<path d="M0 0 C0.66 0.33 1.32 0.66 2 1 C0.58611621 2.75224914 -0.83122783 4.50170655 -2.25 6.25 C-3.03890625 7.22453125 -3.8278125 8.1990625 -4.640625 9.203125 C-6.66465805 11.60247544 -8.74122349 13.82411437 -11 16 C-10.41980487 12.63486826 -9.36548527 11.36548527 -7 9 C-6.28552357 6.89667109 -6.28552357 6.89667109 -6 5 C-5.34 5 -4.68 5 -4 5 C-3.67 4.01 -3.34 3.02 -3 2 C-2.01 1.34 -1.02 0.68 0 0 Z " fill="#1D5EEE" transform="translate(782,580)"/>
<path d="M0 0 C0.66 0 1.32 0 2 0 C2.55706146 2.43489767 3.0960037 4.87149591 3.625 7.3125 C3.78484375 8.00279297 3.9446875 8.69308594 4.109375 9.40429688 C4.50206712 11.25173481 4.75842888 13.12680022 5 15 C4.01 16.485 4.01 16.485 3 18 C2.67 14.7 2.34 11.4 2 8 C1.34 8 0.68 8 0 8 C0 5.36 0 2.72 0 0 Z " fill="#1C5BEE" transform="translate(807,391)"/>
<path d="M0 0 C-2.36660382 2.36660382 -3.13963758 2.30990526 -6.375 2.5625 C-9.35822312 2.8069447 -12.11193117 3.2021545 -15 4 C-14.67 3.01 -14.34 2.02 -14 1 C-12.41913952 0.63495397 -10.83516093 0.28339494 -9.25 -0.0625 C-8.36828125 -0.25972656 -7.4865625 -0.45695312 -6.578125 -0.66015625 C-4.01320972 -0.99825872 -2.42908361 -0.81158635 0 0 Z " fill="#1179F5" transform="translate(419,368)"/>
<path d="M0 0 C3.76119476 0.62393651 6.18960042 2.34773715 9.25 4.5625 C10.14203125 5.20316406 11.0340625 5.84382813 11.953125 6.50390625 C12.96632813 7.24447266 12.96632813 7.24447266 14 8 C11 9 11 9 8 8 C7.34 7.01 6.68 6.02 6 5 C4.03247172 3.93753473 2.03412421 2.92862192 0 2 C0 1.34 0 0.68 0 0 Z " fill="#2967F0" transform="translate(733,288)"/>
<path d="M0 0 C0 0.33 0 0.66 0 1 C-0.90492188 1.09087891 -0.90492188 1.09087891 -1.828125 1.18359375 C-3.02695312 1.30927734 -3.02695312 1.30927734 -4.25 1.4375 C-5.03890625 1.51871094 -5.8278125 1.59992188 -6.640625 1.68359375 C-8.98043614 1.94041282 -8.98043614 1.94041282 -11.109375 2.59765625 C-13 3 -13 3 -16 2 C-16 1.34 -16 0.68 -16 0 C-10.42289352 -1.06795656 -5.60563042 -0.82622671 0 0 Z " fill="#1B5EF0" transform="translate(614,258)"/>
<path d="M0 0 C0.66 0.33 1.32 0.66 2 1 C1.67 1.99 1.34 2.98 1 4 C-1.0625 4.6875 -1.0625 4.6875 -3 5 C-3 5.66 -3 6.32 -3 7 C-4.65 7.66 -6.3 8.32 -8 9 C-8 8.01 -8 7.02 -8 6 C-6.25 4.39453125 -6.25 4.39453125 -4 2.8125 C-3.2575 2.28269531 -2.515 1.75289063 -1.75 1.20703125 C-1.1725 0.80871094 -0.595 0.41039062 0 0 Z " fill="#1C5DF2" transform="translate(514,291)"/>
<path d="M0 0 C0.66 0.33 1.32 0.66 2 1 C-0.85276137 3.93200474 -3.65079784 6.64315404 -7 9 C-7.66 8.67 -8.32 8.34 -9 8 C-6.14723863 5.06799526 -3.34920216 2.35684596 0 0 Z " fill="#167CF7" transform="translate(367,385)"/>
<path d="M0 0 C0 0.66 0 1.32 0 2 C-1.98 2.33 -3.96 2.66 -6 3 C-6 3.66 -6 4.32 -6 5 C-7.65 5.33 -9.3 5.66 -11 6 C-11 5.34 -11 4.68 -11 4 C-4.5 0 -4.5 0 0 0 Z " fill="#2263EF" transform="translate(535,280)"/>
<path d="M0 0 C1.22589844 0.15275391 1.22589844 0.15275391 2.4765625 0.30859375 C3.41628906 0.43427734 3.41628906 0.43427734 4.375 0.5625 C4.375 1.2225 4.375 1.8825 4.375 2.5625 C3.116875 2.60375 1.85875 2.645 0.5625 2.6875 C-0.14519531 2.71070313 -0.85289062 2.73390625 -1.58203125 2.7578125 C-3.625 2.5625 -3.625 2.5625 -6.625 0.5625 C-4.10446405 -0.69776798 -2.7707902 -0.35624445 0 0 Z " fill="#1859EE" transform="translate(675.625,261.4375)"/>
<path d="M0 0 C2.97 1.65 5.94 3.3 9 5 C9 5.99 9 6.98 9 8 C5.08158173 6.69386058 2.67359191 5.16870152 0 2 C0 1.34 0 0.68 0 0 Z " fill="#1A5AED" transform="translate(721,279)"/>
<path d="M0 0 C3.34998521 1.11666174 3.79340222 1.74694925 5.6875 4.5625 C6.12449219 5.20316406 6.56148437 5.84382813 7.01171875 6.50390625 C7.33785156 6.99761719 7.66398438 7.49132812 8 8 C5.04987143 6.63029745 2.4347778 5.17390875 0 3 C0 2.01 0 1.02 0 0 Z " fill="#3069EE" transform="translate(769,319)"/>
<path d="M0 0 C-1.25 1.5 -1.25 1.5 -3 3 C-4.32 3 -5.64 3 -7 3 C-6.67 2.01 -6.34 1.02 -6 0 C-3.50907189 -1.24546405 -2.58919267 -0.7767578 0 0 Z " fill="#006BF1" transform="translate(393,375)"/>
<path d="M0 0 C1.32 0 2.64 0 4 0 C3 3 3 3 0 5 C-0.99 4.67 -1.98 4.34 -3 4 C-1.75 2 -1.75 2 0 0 Z " fill="#0148EC" transform="translate(517,289)"/>
<path d="M0 0 C-2.00773956 2.00773956 -3.36873617 2.99392854 -6 4 C-8.25 3.625 -8.25 3.625 -10 3 C-7.29536552 -0.8183075 -4.37912428 -0.24787496 0 0 Z " fill="#0044EB" transform="translate(559,270)"/>
<path d="M0 0 C0.66 0 1.32 0 2 0 C2.66 2.97 3.32 5.94 4 9 C3.01 8.34 2.02 7.68 1 7 C0.3125 3.375 0.3125 3.375 0 0 Z " fill="#0649EA" transform="translate(802,374)"/>
<path d="M0 0 C0.66 0.33 1.32 0.66 2 1 C0.38405168 3.04119788 -1.2856382 5.04072937 -3 7 C-3.66 7 -4.32 7 -5 7 C-4.60196439 4.11424181 -4.20990931 3.17810487 -1.9375 1.25 C-1.298125 0.8375 -0.65875 0.425 0 0 Z " fill="#1054EE" transform="translate(481,323)"/>
<path d="M0 0 C2.31 0.33 4.62 0.66 7 1 C6.67 1.66 6.34 2.32 6 3 C3.69 2.67 1.38 2.34 -1 2 C-0.67 1.34 -0.34 0.68 0 0 Z " fill="#1054EE" transform="translate(685,265)"/>
<path d="M0 0 C0.66 0.33 1.32 0.66 2 1 C1.34 2.65 0.68 4.3 0 6 C-0.99 6 -1.98 6 -3 6 C-1.125 1.125 -1.125 1.125 0 0 Z " fill="#225FEB" transform="translate(786,572)"/>
<path d="M0 0 C1.32 0.33 2.64 0.66 4 1 C1.60490662 3.89932357 -0.31245243 4.50168276 -4 5 C-3.67 4.34 -3.34 3.68 -3 3 C-2.34 3 -1.68 3 -1 3 C-0.67 2.01 -0.34 1.02 0 0 Z " fill="#1154EF" transform="translate(547,272)"/>
</svg>
